<svg width="70" height="70" viewBox="0 0 70 70" fill="none" xmlns="http://www.w3.org/2000/svg">
<path d="M35 4.375C18.0879 4.375 4.375 18.0879 4.375 35C4.375 51.9121 18.0879 65.625 35 65.625C51.9121 65.625 65.625 51.9121 65.625 35C65.625 18.0879 51.9121 4.375 35 4.375ZM47.0654 44.4131L45.1104 47.0791C45.0678 47.1372 45.0143 47.1862 44.9527 47.2235C44.8912 47.2608 44.8228 47.2855 44.7517 47.2963C44.6805 47.3071 44.608 47.3038 44.5381 47.2864C44.4683 47.2691 44.4026 47.2381 44.3447 47.1953L33.0381 38.9512C32.9676 38.9006 32.9104 38.8338 32.8711 38.7565C32.8319 38.6792 32.8118 38.5936 32.8125 38.5068V19.6875C32.8125 19.3867 33.0586 19.1406 33.3594 19.1406H36.6475C36.9482 19.1406 37.1943 19.3867 37.1943 19.6875V36.6064L46.9424 43.6543C47.1885 43.8252 47.2432 44.167 47.0654 44.4131Z" fill="black"/>
</svg>
